<svg xmlns="http://www.w3.org/2000/svg" width="137" height="186" viewBox="0 0 137 186" version="1.1">
	<path d="M 34.500 22.594 C 33.400 23.435, 29.454 25.784, 25.732 27.812 L 18.964 31.500 19.232 42.432 L 19.500 53.364 24.500 56.321 C 27.250 57.947, 31.304 60.294, 33.509 61.537 L 37.519 63.795 42.509 60.875 C 45.254 59.269, 49.413 56.976, 51.750 55.778 L 56 53.601 56 42.301 C 56 36.085, 55.663 31, 55.250 30.999 C 54.837 30.999, 50.718 28.749, 46.096 25.999 C 41.474 23.250, 37.424 21.014, 37.096 21.032 C 36.768 21.049, 35.600 21.752, 34.500 22.594 M 43.728 66.688 L 28.956 75.277 29.228 93.264 L 29.500 111.252 44.500 120.029 L 59.500 128.806 64.500 125.973 C 67.250 124.416, 74.163 120.498, 79.862 117.267 C 85.561 114.037, 90.173 111.080, 90.112 110.697 C 90.050 110.314, 90 101.900, 90 92 C 90 80.433, 89.636 74, 88.980 74 C 88.419 74, 86.282 72.941, 84.230 71.647 C 75.463 66.118, 60.834 58.004, 59.715 58.050 C 59.047 58.077, 51.853 61.964, 43.728 66.688" stroke="none" fill="black" fill-rule="evenodd"/>
</svg>